<?xml version="1.0" standalone="no"?>
<!DOCTYPE svg PUBLIC "-//W3C//DTD SVG 20010904//EN"
 "http://www.w3.org/TR/2001/REC-SVG-20010904/DTD/svg10.dtd">
<svg version="1.0" xmlns="http://www.w3.org/2000/svg"
 width="200.000000pt" height="200.000000pt" viewBox="80 55 90.000000 90.000000"
 preserveAspectRatio="xMidYMid meet">
<metadata>
Created by potrace 1.15, written by Peter Selinger 2001-2017
</metadata>
<g transform="translate(0.000000,200.000000) scale(0.100000,-0.100000)"
fill="#000000" stroke="none">
<path d="M133 1435 l-33 -14 0 -420 0 -420 30 -16 c25 -13 136 -15 870 -15
734 0 845 2 870 15 l30 16 0 420 0 420 -35 15 c-51 21 -1683 20 -1732 -1z
m1705 -37 c7 -7 12 -36 12 -65 l0 -53 -850 0 -850 0 0 53 c0 29 5 58 12 65 17
17 1659 17 1676 0z m12 -466 c0 -234 -3 -321 -12 -330 -17 -17 -1659 -17
-1676 0 -9 9 -12 96 -12 330 l0 318 850 0 850 0 0 -318z"/>
<path d="M615 1023 c0 -140 -11 -195 -41 -207 -21 -8 -41 18 -48 63 -6 37 -9
41 -36 41 -25 0 -30 -4 -30 -25 0 -14 6 -41 14 -60 38 -90 152 -84 192 11 18
43 28 169 19 248 -7 66 -7 66 -38 66 l-32 0 0 -137z"/>
<path d="M1050 1083 c-43 -22 -69 -67 -76 -130 -15 -124 62 -221 150 -187 30
12 18 34 -19 34 -40 0 -71 25 -81 65 -11 43 2 125 23 153 45 60 140 46 169
-25 19 -43 13 -108 -10 -132 -15 -14 -16 -9 -16 52 0 54 -4 71 -20 87 -24 24
-57 26 -88 4 -26 -18 -30 -54 -5 -54 14 0 13 -3 -5 -16 -27 -18 -29 -65 -5
-89 11 -12 28 -15 52 -13 20 3 43 0 52 -5 25 -16 67 1 84 33 20 39 19 127 -3
170 -30 61 -134 88 -202 53z"/>
<path d="M725 995 c-9 -82 1 -169 23 -194 32 -36 59 -36 97 2 l35 35 0 -29 c0
-22 5 -29 18 -29 17 0 20 12 25 98 11 166 11 172 -18 172 -19 0 -25 -5 -25
-23 0 -35 -35 -153 -55 -183 -16 -24 -18 -25 -33 -10 -13 13 -17 34 -15 100 0
47 4 94 8 105 5 18 2 21 -24 21 -29 0 -30 -1 -36 -65z"/>
<path d="M1398 1043 c-8 -10 -20 -27 -26 -38 -10 -18 -11 -17 -12 13 0 29 -3
32 -30 32 l-30 0 3 -135 c2 -130 3 -135 23 -135 17 0 23 8 29 36 11 59 44 158
61 179 23 30 31 7 39 -112 7 -100 8 -103 31 -103 13 0 24 6 24 13 0 50 -23
233 -31 248 -13 24 -61 25 -81 2z"/>
</g>
</svg>
